<svg width="64" height="64" viewBox="0 0 64 64" fill="none" xmlns="http://www.w3.org/2000/svg">
<circle cx="32" cy="32" r="32" fill="#1DC642" fill-opacity="0.87"/>
<path d="M14.0879 42.6953C13.8535 42.8828 13.7129 43.1289 13.666 43.4336C13.6191 43.7148 13.5605 43.9961 13.4902 44.2773C13.4199 44.5586 13.291 44.8047 13.1035 45.0156C12.9395 45.2031 12.6348 45.2852 12.1895 45.2617C12.0957 45.3789 12.0723 45.4492 12.1191 45.4727C12.1895 45.4961 12.248 45.6016 12.2949 45.7891C11.9668 45.7422 11.7324 45.7656 11.5918 45.8594C11.4512 45.9531 11.2754 46.0234 11.0645 46.0703C10.5254 45.9062 10.0684 45.6133 9.69336 45.1914C9.3418 44.7461 9.02539 44.2656 8.74414 43.75C8.48633 43.2344 8.25195 42.707 8.04102 42.168C7.85352 41.6289 7.6543 41.1602 7.44336 40.7617C7.44336 40.668 7.49023 40.6328 7.58398 40.6562C7.6543 40.6562 7.72461 40.6562 7.79492 40.6562C7.67773 40.4219 7.5957 40.1641 7.54883 39.8828C7.47852 39.5781 7.36133 39.332 7.19727 39.1445C7.87695 37.6914 8.60352 36.1797 9.37695 34.6094C10.1504 33.0156 10.9238 31.4102 11.6973 29.793C12.4941 28.1523 13.2793 26.5117 14.0527 24.8711C14.8496 23.207 15.6113 21.5781 16.3379 19.9844C16.9941 20.2188 17.627 20.5 18.2363 20.8281C18.8691 21.1328 19.4434 21.4961 19.959 21.918C20.4746 22.3398 20.9082 22.832 21.2598 23.3945C21.6348 23.9336 21.8809 24.5547 21.998 25.2578C21.9512 25.3984 21.8926 25.4453 21.8223 25.3984C21.752 25.3516 21.6934 25.375 21.6465 25.4688C21.7637 25.6094 21.8223 25.7148 21.8223 25.7852C21.8457 25.832 21.8457 25.8906 21.8223 25.9609C21.7988 26.0078 21.7871 26.0781 21.7871 26.1719C21.7871 26.2656 21.8457 26.3945 21.9629 26.5586C21.8457 26.5352 21.7637 26.5586 21.7168 26.6289C21.6699 26.6758 21.5879 26.6758 21.4707 26.6289C21.5879 26.957 21.623 27.2148 21.5762 27.4023C21.5293 27.5898 21.459 27.7656 21.3652 27.9297C21.2715 28.0703 21.1895 28.2344 21.1191 28.4219C21.0723 28.5859 21.0957 28.8203 21.1895 29.125C21.0957 29.125 21.0254 29.1484 20.9785 29.1953C20.9551 29.2188 20.9316 29.2539 20.9082 29.3008C20.8848 29.3477 20.8496 29.3945 20.8027 29.4414C20.7793 29.4648 20.7207 29.4648 20.627 29.4414C20.6973 30.0508 20.7207 30.6719 20.6973 31.3047C20.6738 31.9141 20.6504 32.5469 20.627 33.2031C20.6035 33.8359 20.6035 34.4922 20.627 35.1719C20.6504 35.8516 20.7441 36.5547 20.9082 37.2812C21.916 36.6953 22.7246 35.9336 23.334 34.9961C23.9668 34.0586 24.459 33.0156 24.8105 31.8672C25.1855 30.7188 25.4668 29.4883 25.6543 28.1758C25.8652 26.8633 26.0762 25.5273 26.2871 24.168C26.5449 23.9102 26.7441 23.5938 26.8848 23.2188C27.0488 22.8438 27.1777 22.457 27.2715 22.0586C27.3887 21.6602 27.4941 21.2617 27.5879 20.8633C27.7051 20.4414 27.8574 20.0664 28.0449 19.7383C28.4668 19.7852 28.8184 19.9141 29.0996 20.125C29.4043 20.3125 29.6855 20.5352 29.9434 20.793C30.2012 21.0273 30.4707 21.25 30.752 21.4609C31.0332 21.6719 31.3848 21.8125 31.8066 21.8828C32.1348 22.3516 32.4395 22.8086 32.7207 23.2539C33.002 23.6758 33.1895 24.1562 33.2832 24.6953C33.1426 24.9297 33.0371 25.1875 32.9668 25.4688C32.8965 25.75 32.8145 26.0312 32.7207 26.3125C32.6504 26.5938 32.5449 26.8516 32.4043 27.0859C32.2637 27.3203 32.0645 27.5195 31.8066 27.6836C31.7363 28.3867 31.6309 29.043 31.4902 29.6523C31.3496 30.2617 31.2207 30.8594 31.1035 31.4453C30.9863 32.0312 30.8809 32.6406 30.7871 33.2734C30.6934 33.9062 30.6582 34.5977 30.6816 35.3477C30.4707 36.0273 30.2363 36.7305 29.9785 37.457C29.7207 38.1602 29.5332 38.8164 29.416 39.4258C28.9707 39.7773 28.6191 40.2109 28.3613 40.7266C28.1035 41.2422 27.834 41.7578 27.5527 42.2734C27.4355 42.3672 27.3652 42.3906 27.3418 42.3438C27.3184 42.2734 27.2129 42.2266 27.0254 42.2031C27.0488 42.4141 27.002 42.5547 26.8848 42.625C26.791 42.6719 26.8027 42.8359 26.9199 43.1172C26.5215 43.3047 26.1699 43.5508 25.8652 43.8555C25.5605 44.1602 25.2207 44.4414 24.8457 44.6992C24.4941 44.957 24.0723 45.1328 23.5801 45.2266C23.1113 45.2969 22.4902 45.1914 21.7168 44.9102C20.5684 44.0664 19.5371 43.0938 18.623 41.9922C17.709 40.8906 16.9824 39.5898 16.4434 38.0898C16.209 38.1602 16.0332 38.3125 15.916 38.5469C15.7988 38.7812 15.6934 39.0273 15.5996 39.2852C15.5059 39.543 15.4121 39.7773 15.3184 39.9883C15.2246 40.1992 15.084 40.3047 14.8965 40.3047C14.8496 40.5156 14.7559 40.7148 14.6152 40.9023C14.498 41.0664 14.3809 41.2422 14.2637 41.4297C14.1465 41.5938 14.0527 41.7812 13.9824 41.9922C13.9355 42.2031 13.9707 42.4375 14.0879 42.6953ZM32.0879 42.9062C32.0176 42.2031 32.0059 41.5703 32.0527 41.0078C32.0762 40.4453 32.1582 39.9062 32.2988 39.3906C32.416 38.875 32.5801 38.3828 32.791 37.9141C33.0254 37.4453 33.2832 36.9414 33.5645 36.4023C33.8926 36.2852 34.1855 36.1328 34.4434 35.9453C34.7012 35.7344 34.9473 35.5352 35.1816 35.3477C35.416 35.1367 35.6387 34.9609 35.8496 34.8203C36.084 34.6562 36.3066 34.5625 36.5176 34.5391L36.8691 34.3281C37.3379 33.7891 37.9121 33.2969 38.5918 32.8516C39.2715 32.3828 39.9746 31.9375 40.7012 31.5156C41.3105 31.1641 41.9082 30.8125 42.4941 30.4609C43.0801 30.0859 43.6191 29.6641 44.1113 29.1953C44.3457 29.2188 44.5449 29.1719 44.709 29.0547C44.8262 28.8906 44.873 28.7148 44.8496 28.5273C44.9199 28.4805 44.9785 28.4336 45.0254 28.3867C45.0957 28.3164 45.166 28.2578 45.2363 28.2109C45.4238 28.0469 45.6816 27.8828 46.0098 27.7188C46.3613 27.5312 46.5957 27.2852 46.7129 26.9805L47.627 26.1016L46.3613 26.1367C45.7285 26.1367 45.0488 26.1719 44.3223 26.2422C43.6191 26.3125 43.0098 26.3711 42.4941 26.418C42.0723 26.4648 41.6387 26.5 41.1934 26.5234C40.7715 26.5469 40.291 26.5703 39.752 26.5938C39.3066 26.3125 38.9199 25.9492 38.5918 25.5039C38.2871 25.0586 38.041 24.5781 37.8535 24.0625C37.6895 23.5469 37.5957 23.0078 37.5723 22.4453C37.5488 21.8828 37.6191 21.3438 37.7832 20.8281C37.9707 20.7812 38.1348 20.7344 38.2754 20.6875C38.4395 20.6172 38.5918 20.5469 38.7324 20.4766C38.9902 20.4531 39.1543 20.4531 39.2246 20.4766C39.3184 20.5 39.4238 20.5117 39.541 20.5117C40.9473 20.2773 42.0957 20.1602 42.9863 20.1602C43.9707 20.1602 44.8613 20.2773 45.6582 20.5117C46.6426 20.5117 47.6387 20.4766 48.6465 20.4062C49.6777 20.3359 50.7207 20.3945 51.7754 20.582C52.5254 20.3477 53.2754 20.2891 54.0254 20.4062C54.7754 20.5 55.4199 20.8281 55.959 21.3906C56.0059 21.8594 56.1348 22.2227 56.3457 22.4805C56.5566 22.7148 56.8379 22.8906 57.1895 23.0078C57.4004 23.8281 57.4121 24.543 57.2246 25.1523C57.0605 25.7617 56.7676 26.3125 56.3457 26.8047C55.9238 27.2734 55.4199 27.6953 54.834 28.0703C54.248 28.4453 53.6738 28.8086 53.1113 29.1602C52.9473 29.418 52.748 29.6289 52.5137 29.793C52.2793 29.957 52.0566 30.1328 51.8457 30.3203C50.9316 31.5391 49.8652 32.582 48.6465 33.4492C47.4512 34.293 46.2324 35.125 44.9902 35.9453C44.0996 36.5547 43.209 37.1641 42.3184 37.7734C41.4512 38.3828 40.6074 39.0391 39.7871 39.7422L39.3301 40.1289L39.7168 40.5508C40.0449 40.8789 40.4434 41.043 40.9121 41.043C41.1699 41.043 41.416 41.0078 41.6504 40.9375C41.9082 40.8672 42.1426 40.7852 42.3535 40.6914C42.5645 40.6211 42.752 40.5625 42.916 40.5156C43.1035 40.4453 43.2559 40.4102 43.373 40.4102L43.7598 40.4805C44.1113 40.293 44.3926 40.1641 44.6035 40.0938C44.8379 40 45.0723 39.918 45.3066 39.8477C45.4941 39.8008 45.6934 39.7422 45.9043 39.6719C46.1387 39.6016 46.3613 39.5078 46.5723 39.3906C47.1816 39.3906 47.7676 39.3086 48.3301 39.1445C48.8926 38.957 49.4434 38.7578 49.9824 38.5469C50.3105 38.4297 50.627 38.3125 50.9316 38.1953C51.2598 38.0781 51.5879 37.9727 51.916 37.8789C52.0332 38.043 52.1621 38.1836 52.3027 38.3008C52.4668 38.3945 52.6191 38.4766 52.7598 38.5469C52.9707 38.6641 53.123 38.7695 53.2168 38.8633C53.3105 38.9336 53.3691 39.0391 53.3926 39.1797L53.5332 40.3398L54.2715 39.5312C54.623 39.8594 54.8105 40.1992 54.834 40.5508C54.8574 40.8789 54.8223 41.3125 54.7285 41.8516C53.8145 42.7656 52.6777 43.4805 51.3184 43.9961C49.9824 44.5117 48.5645 44.9922 47.0645 45.4375C46.7363 45.5312 46.4199 45.625 46.1152 45.7188C45.8105 45.7891 45.4941 45.8828 45.166 46L45.2012 45.2617L44.2871 45.8594C44.1699 45.9531 44.0762 46.0352 44.0059 46.1055C43.9355 46.1992 43.8652 46.293 43.7949 46.3867C43.0684 46.5508 42.459 46.6797 41.9668 46.7734C41.498 46.8672 41.0527 46.9609 40.6309 47.0547C40.1621 47.1719 39.7168 47.2656 39.2949 47.3359C38.8965 47.4062 38.4512 47.4414 37.959 47.4414C37.7949 47.4414 37.6309 47.4297 37.4668 47.4062C37.3262 47.4062 37.1738 47.3945 37.0098 47.3711C36.8691 47.3242 36.7051 47.2773 36.5176 47.2305L36.0254 46.3164L35.3574 46.8086C35.0996 46.5977 34.8066 46.375 34.4785 46.1406C34.1973 45.9062 33.9395 45.6719 33.7051 45.4375C33.4707 45.2031 33.3418 44.9688 33.3184 44.7344L33.2832 44.3125L32.8613 44.207C32.8145 44.1602 32.7676 44.043 32.7207 43.8555C32.6738 43.7148 32.6035 43.5508 32.5098 43.3633C32.416 43.1758 32.2754 43.0234 32.0879 42.9062Z" fill="#FEFFFE"/>
</svg>
