<?xml version="1.0" encoding="us-ascii" standalone="no"?><svg xmlns="http://www.w3.org/2000/svg" xmlns:xlink="http://www.w3.org/1999/xlink" contentStyleType="text/css" height="717.6px" preserveAspectRatio="none" style="width:2438px;height:717px;background:#FFFFFF;" version="1.1" viewBox="0 0 2438 717" width="2438.4px" zoomAndPan="magnify"><defs/><g><ellipse cx="1438.704" cy="38.4" fill="#222222" rx="24" ry="24" style="stroke:none;stroke-width:2.4;"/><g id="R"><rect fill="#F1F1F1" height="130.9969" rx="30" ry="30" style="stroke:#181818;stroke-width:1.2;" width="384" x="1246.704" y="252"/><line style="stroke:#181818;stroke-width:1.2;" x1="1246.704" x2="1630.704" y1="320.6906" y2="320.6906"/><text fill="#000000" font-family="sans-serif" font-size="33.6" lengthAdjust="spacing" textLength="24" x="1426.704" y="300.2578">R</text><text fill="#000000" font-family="sans-serif" font-size="28.8" lengthAdjust="spacing" textLength="336" x="1258.704" y="363.7688">RUNNING or RUNNABLE</text></g><g id="D"><rect fill="#F1F1F1" height="130.9969" rx="30" ry="30" style="stroke:#181818;stroke-width:1.2;" width="420" x="251.904" y="573.6"/><line style="stroke:#181818;stroke-width:1.2;" x1="251.904" x2="671.904" y1="642.2906" y2="642.2906"/><text fill="#000000" font-family="sans-serif" font-size="33.6" lengthAdjust="spacing" textLength="24" x="449.904" y="621.8578">D</text><text fill="#000000" font-family="sans-serif" font-size="28.8" lengthAdjust="spacing" textLength="372" x="263.904" y="685.3688">UNINTERRUPTIBLE SLEEP</text></g><g id="S"><rect fill="#F1F1F1" height="130.9969" rx="30" ry="30" style="stroke:#181818;stroke-width:1.2;" width="376.8" x="986.304" y="573.6"/><line style="stroke:#181818;stroke-width:1.2;" x1="986.304" x2="1363.104" y1="642.2906" y2="642.2906"/><text fill="#000000" font-family="sans-serif" font-size="33.6" lengthAdjust="spacing" textLength="21.6" x="1163.904" y="621.8578">S</text><text fill="#000000" font-family="sans-serif" font-size="28.8" lengthAdjust="spacing" textLength="328.8" x="998.304" y="685.3688">INTERRUPTIBLE SLEEP</text></g><g id="T"><rect fill="#F1F1F1" height="130.9969" rx="30" ry="30" style="stroke:#181818;stroke-width:1.2;" width="184.8" x="1703.904" y="573.6"/><line style="stroke:#181818;stroke-width:1.2;" x1="1703.904" x2="1888.704" y1="642.2906" y2="642.2906"/><text fill="#000000" font-family="sans-serif" font-size="33.6" lengthAdjust="spacing" textLength="21.6" x="1785.504" y="621.8578">T</text><text fill="#000000" font-family="sans-serif" font-size="28.8" lengthAdjust="spacing" textLength="136.8" x="1715.904" y="685.3688">STOPPED</text></g><g id="Z"><rect fill="#F1F1F1" height="130.9969" rx="30" ry="30" style="stroke:#181818;stroke-width:1.2;" width="153.6" x="2084.304" y="573.6"/><line style="stroke:#181818;stroke-width:1.2;" x1="2084.304" x2="2237.904" y1="642.2906" y2="642.2906"/><text fill="#000000" font-family="sans-serif" font-size="33.6" lengthAdjust="spacing" textLength="19.2" x="2151.504" y="621.8578">Z</text><text fill="#000000" font-family="sans-serif" font-size="28.8" lengthAdjust="spacing" textLength="105.6" x="2096.304" y="685.3688">ZOMBIE</text></g><!--link *start* to R--><g id="link_*start*_R"><path d="M1438.704,63.288 C1438.704,101.352 1438.704,180.096 1438.704,239.568 " fill="none" id="*start*-to-R" style="stroke:#181818;stroke-width:2.4;"/><polygon fill="#181818" points="1438.704,251.928,1448.304,230.328,1438.704,239.928,1429.104,230.328,1438.704,251.928" style="stroke:#181818;stroke-width:2.4;"/><text fill="#000000" font-family="sans-serif" font-size="31.2" lengthAdjust="spacing" textLength="232.8" x="1441.104" y="170.468">Process Created</text></g><!--link R to D--><g id="link_R_D"><path d="M1246.32,325.584 C890.136,337.2 157.032,371.208 80.304,456 C14.4,528.816 121.824,575.016 239.304,602.544 " fill="none" id="R-to-D" style="stroke:#181818;stroke-width:2.4;"/><polygon fill="#181818" points="251.448,605.328,232.5324,591.1533,239.7501,602.6522,228.2512,609.8699,251.448,605.328" style="stroke:#181818;stroke-width:2.4;"/><text fill="#000000" font-family="sans-serif" font-size="31.2" lengthAdjust="spacing" textLength="480" x="82.704" y="492.068">Waiting for Resources and Signals</text></g><!--link D to R--><g id="link_D_R"><path d="M537.432,573.408 C588.264,533.712 658.536,484.92 728.304,456 C891.024,388.536 1088.784,354.288 1234.272,337.128 " fill="none" id="D-to-R" style="stroke:#181818;stroke-width:2.4;"/><polygon fill="#181818" points="1246.416,335.712,1223.8388,328.7128,1234.4989,337.1201,1226.0917,347.7802,1246.416,335.712" style="stroke:#181818;stroke-width:2.4;"/><text fill="#000000" font-family="sans-serif" font-size="31.2" lengthAdjust="spacing" textLength="261.6" x="730.704" y="492.068">Wakes Up / Signal</text></g><!--link R to S--><g id="link_R_S"><path d="M1246.176,334.248 C1163.688,350.88 1074.696,385.416 1023.504,456 C996.432,493.296 1022.328,532.8 1059.888,565.368 " fill="none" id="R-to-S" style="stroke:#181818;stroke-width:2.4;"/><polygon fill="#181818" points="1069.656,573.504,1059.1538,552.328,1060.4177,565.8455,1046.9002,567.1093,1069.656,573.504" style="stroke:#181818;stroke-width:2.4;"/><text fill="#000000" font-family="sans-serif" font-size="31.2" lengthAdjust="spacing" textLength="307.2" x="1025.904" y="492.068">Waiting for Resources</text></g><!--link S to R--><g id="link_S_R"><path d="M1269.48,573.264 C1296.024,552.456 1323.504,527.904 1345.104,501.6 C1370.928,470.136 1392.456,430.368 1408.32,396.12 " fill="none" id="S-to-R" style="stroke:#181818;stroke-width:2.4;"/><polygon fill="#181818" points="1413.48,384.744,1395.8432,400.4813,1408.5428,395.6813,1413.3429,408.3809,1413.48,384.744" style="stroke:#181818;stroke-width:2.4;"/><text fill="#000000" font-family="sans-serif" font-size="31.2" lengthAdjust="spacing" textLength="146.4" x="1378.704" y="492.068">Wakes Up</text></g><!--link R to T--><g id="link_R_T"><path d="M1511.064,384.504 C1569.96,436.68 1653.072,510.312 1714.392,564.648 " fill="none" id="R-to-T" style="stroke:#181818;stroke-width:2.4;"/><polygon fill="#181818" points="1724.04,573.192,1714.279,551.6643,1715.073,565.2175,1701.5198,566.0115,1724.04,573.192" style="stroke:#181818;stroke-width:2.4;"/><text fill="#000000" font-family="sans-serif" font-size="31.2" lengthAdjust="spacing" textLength="136.8" x="1642.704" y="492.068">SIGSTOP</text></g><!--link T to R--><g id="link_T_R"><path d="M1815.576,573.144 C1822.8,535.824 1824.408,489.624 1801.104,456 C1764.312,402.96 1704.072,370.632 1643.184,350.928 " fill="none" id="T-to-R" style="stroke:#181818;stroke-width:2.4;"/><polygon fill="#181818" points="1630.992,347.16,1648.7613,362.7476,1642.4494,350.7276,1654.4694,344.4157,1630.992,347.16" style="stroke:#181818;stroke-width:2.4;"/><text fill="#000000" font-family="sans-serif" font-size="31.2" lengthAdjust="spacing" textLength="136.8" x="1822.704" y="492.068">SIGCONT</text></g><!--link R to Z--><g id="link_R_Z"><path d="M1630.8,342.48 C1739.064,361.104 1873.704,394.968 1981.104,456 C2028.72,483.072 2072.28,526.2 2104.632,563.592 " fill="none" id="R-to-Z" style="stroke:#181818;stroke-width:2.4;"/><polygon fill="#181818" points="2112.6,572.976,2105.9723,550.2869,2104.8472,563.8167,2091.3174,562.6915,2112.6,572.976" style="stroke:#181818;stroke-width:2.4;"/><text fill="#000000" font-family="sans-serif" font-size="31.2" lengthAdjust="spacing" textLength="376.8" x="2043.504" y="492.068">exit() or termination signals</text></g><!--SRC=[TOzFIyGm5CJlxrEyct-WLX0lEGZkDYo5jGr9Yh3Y8RIn6spJacJHZ- -hrekujp3pcycyYsDASsHvFW_6fzCutBJJcCTaaiqwP_fWHe3Oci7YtVqjVhWk7U7b-XMpx04bCXHXQcsCk0sMCXt8RwTW-6nSShx7jocWj74w1UBG-0wLwxqP8XG_9GlwJbOpOxvwQuiwqmBgRt8DQ8Qgt2bT2z2_20dRkj8hSM1eFrswl48gJ3QCpfla9ezn7GNBKRAfghBQBSpoVDpiET193OcQIza8NPA4Qi-v05hvdxnieI625q2V7kgdJSc_0000]--></g></svg>